<svg xmlns="http://www.w3.org/2000/svg" viewBox="0 0 62.03 69.62"><title>logo-box</title><g id="Layer_2" data-name="Layer 2"><g id="Layer_1-2" data-name="Layer 1"><path d="M62,40.14,53.72,9.74a2,2,0,0,0-1.43-1.43L21.89.07a2,2,0,0,0-1.77.35A.39.39,0,0,0,20,.5l-.1-.11L.6,19.71h0l-.12.13a2,2,0,0,0-.39,1.91L9.26,51.22a2.07,2.07,0,0,0,1.1,1.25l37.26,17a2,2,0,0,0,.85.19,2,2,0,0,0,1.32-.5,2,2,0,0,0,.54-.74h0L61.57,42l0,0A2.07,2.07,0,0,0,62,40.14ZM48.85,61.49,43.5,42.71H56.83Zm8.48-22.85h-15L38.77,26.12l11.9-12.06Zm-33.94,0V25.92L34.9,27.38l3.21,11.26ZM47.7,11.28l-12,12.11L23.39,21.82V4.69Zm-28.38,10L6.4,19.66,19.32,6.74ZM4.92,23.57l14.4,1.83V40.67a2.12,2.12,0,0,0,.05.44L12.51,48ZM15.77,50.46l7.75-7.75H39.27l6,21.2Z" style="fill:#fff"/></g></g></svg>